<svg xmlns="http://www.w3.org/2000/svg" xmlns:xlink="http://www.w3.org/1999/xlink" xmlns:fi="http://pattern.flaticon.com/" x="0" y="0" width="600" height="180" viewBox="0 0 600 180"><rect x="0px" y="0px" width="100%" height="100%" opacity="1" fill="#ffffff"/><defs><g transform="matrix(0.1171875 0 0 0.1171875 38 34)" id="L1_24"><path d="M491.729,112.971L259.261,0.745c-2.061-0.994-4.461-0.994-6.521,0L20.271,112.971c-2.592,1.251-4.239,3.876-4.239,6.754    v272.549c0,2.878,1.647,5.503,4.239,6.754l232.468,112.226c1.03,0.497,2.146,0.746,3.261,0.746s2.23-0.249,3.261-0.746    l232.468-112.226c2.592-1.251,4.239-3.876,4.239-6.754V119.726C495.968,116.846,494.32,114.223,491.729,112.971z M256,15.828    l215.217,103.897l-62.387,30.118c-0.395-0.301-0.812-0.579-1.27-0.8L193.805,45.853L256,15.828z M176.867,54.333l214.904,103.746    l-44.015,21.249L132.941,75.624L176.867,54.333z M396.799,172.307v78.546l-41.113,19.848v-78.546L396.799,172.307z     M480.968,387.568L263.5,492.55V236.658l51.873-25.042c3.73-1.801,5.294-6.284,3.493-10.015    c-1.801-3.729-6.284-5.295-10.015-3.493L256,223.623l-20.796-10.04c-3.731-1.803-8.214-0.237-10.015,3.493    c-1.801,3.73-0.237,8.214,3.493,10.015l19.818,9.567V492.55L31.032,387.566V131.674l165.6,79.945    c1.051,0.508,2.162,0.748,3.255,0.748c2.788,0,5.466-1.562,6.759-4.241c1.801-3.73,0.237-8.214-3.493-10.015l-162.37-78.386    l74.505-35.968L340.582,192.52c0.033,0.046,0.07,0.087,0.104,0.132v89.999c0,2.581,1.327,4.98,3.513,6.353    c1.214,0.762,2.599,1.147,3.988,1.147c1.112,0,2.227-0.247,3.26-0.746l56.113-27.089c2.592-1.251,4.239-3.875,4.239-6.754v-90.495    l69.169-33.392V387.568z"/><path d="M92.926,358.479L58.811,342.01c-3.732-1.803-8.214-0.237-10.015,3.493c-1.801,3.73-0.237,8.214,3.493,10.015    l34.115,16.469c1.051,0.508,2.162,0.748,3.255,0.748c2.788,0,5.466-1.562,6.759-4.241    C98.22,364.763,96.656,360.281,92.926,358.479z"/><path d="M124.323,338.042l-65.465-31.604c-3.731-1.801-8.214-0.237-10.015,3.494c-1.8,3.73-0.236,8.214,3.494,10.015    l65.465,31.604c1.051,0.507,2.162,0.748,3.255,0.748c2.788,0,5.466-1.562,6.759-4.241    C129.617,344.326,128.053,339.842,124.323,338.042z"/></g><path d="M609.13,126.484c-2.348-2.548-6.156-3.13-9.175-1.401l-126.658,72.738L298.539,99.423   c-0.373-0.208-0.775-0.328-1.163-0.469L248.255,4.633c-0.924-1.781-2.526-3.108-4.449-3.689c-1.908-0.574-3.987-0.365-5.746,0.604   L3.867,130.158c-1.744,0.954-3.026,2.571-3.585,4.486c-0.537,1.916-0.306,3.965,0.671,5.702l55.485,97.362   c-0.022,0.201,0.7,0.388,0.7,0.596c0,0.015,0,0.03,0,0.045c0,0.015,0,0.03,0,0.044v222.955H55.7c0,0,1.155,6.483,3.473,7.877   l231.875,140.699c1.185,0.724,2.512,1.454,3.853,1.454c1.312,0,2.624-0.157,3.801-0.85l236.624-141.355   c2.34-1.387,3.524-7.818,3.524-7.818h2.721V239.482l69.549-103.734C613.08,132.878,611.5,129.033,609.13,126.484z M260.851,346.755   l34.35-21.94l19.854,12.968l-18.706,29.981L260.851,346.755z M288.172,312.078l-41.34,26.182L78.394,238.498l209.778-119.75   V312.078z M72.044,251.592l216.128,130.98v208.512L72.044,460.133V251.592z M303.078,382.618l223.581-131.167v208.63   L303.078,591.218V382.618z M323.319,325.127l-20.242-13.452V118.674l155.53,87.792l-94.016,53.891   c-1.065,0.611-1.878,1.476-2.519,2.519L323.319,325.127z M238.552,18.271l44.649,85.743L67.028,227.513l-49.396-87.912   L238.552,18.271z M525.361,232.983l0.306,0.209L323.133,353l50.32-80.652l205.702-118.132L525.361,232.983z" transform="matrix(0.09803841263055801 0 0 0.09803841263055801 175 63.000005552956395)" id="L1_25"/><g transform="matrix(-1.9347349405288696 0 0 1.9347349405288696 140.97678315639496 125.00000371973556)" id="L1_26"><g><path d="M25.109,21.51c-0.123,0-0.246-0.045-0.342-0.136l-5.754-5.398c-0.201-0.188-0.211-0.505-0.022-0.706    c0.189-0.203,0.504-0.212,0.707-0.022l5.754,5.398c0.201,0.188,0.211,0.505,0.022,0.706C25.375,21.457,25.243,21.51,25.109,21.51z    "/><path d="M5.902,21.51c-0.133,0-0.266-0.053-0.365-0.158c-0.189-0.201-0.179-0.518,0.022-0.706l5.756-5.398    c0.202-0.188,0.519-0.18,0.707,0.022c0.189,0.201,0.179,0.518-0.022,0.706l-5.756,5.398C6.148,21.465,6.025,21.51,5.902,21.51z"/></g><path d="M28.512,26.529H2.5c-1.378,0-2.5-1.121-2.5-2.5V6.982c0-1.379,1.122-2.5,2.5-2.5h26.012c1.378,0,2.5,1.121,2.5,2.5v17.047   C31.012,25.408,29.89,26.529,28.512,26.529z M2.5,5.482c-0.827,0-1.5,0.673-1.5,1.5v17.047c0,0.827,0.673,1.5,1.5,1.5h26.012   c0.827,0,1.5-0.673,1.5-1.5V6.982c0-0.827-0.673-1.5-1.5-1.5H2.5z"/><path d="M15.506,18.018c-0.665,0-1.33-0.221-1.836-0.662L0.83,6.155C0.622,5.974,0.6,5.658,0.781,5.449   c0.183-0.208,0.498-0.227,0.706-0.048l12.84,11.2c0.639,0.557,1.719,0.557,2.357,0L29.508,5.419   c0.207-0.181,0.522-0.161,0.706,0.048c0.181,0.209,0.16,0.524-0.048,0.706L17.342,17.355   C16.835,17.797,16.171,18.018,15.506,18.018z"/></g></defs><g fi:class="KUsePattern" opacity="0.2"><pattern id="pattern_L1_24" width="350" height="350" patternUnits="userSpaceOnUse"><use xlink:href="#L1_24" x="-350" y="-350"/><use xlink:href="#L1_24" x="0" y="-350"/><use xlink:href="#L1_24" x="350" y="-350"/><use xlink:href="#L1_24" x="-350" y="0"/><use xlink:href="#L1_24" x="0" y="0"/><use xlink:href="#L1_24" x="350" y="0"/><use xlink:href="#L1_24" x="-350" y="350"/><use xlink:href="#L1_24" x="0" y="350"/><use xlink:href="#L1_24" x="350" y="350"/></pattern><rect x="0" y="0" width="100%" height="100%" fill="url(#pattern_L1_24)"/></g><g fi:class="KUsePattern" opacity="0.2"><pattern id="pattern_L1_26" width="350" height="350" patternUnits="userSpaceOnUse"><use xlink:href="#L1_26" x="-350" y="-350"/><use xlink:href="#L1_26" x="0" y="-350"/><use xlink:href="#L1_26" x="350" y="-350"/><use xlink:href="#L1_26" x="-350" y="0"/><use xlink:href="#L1_26" x="0" y="0"/><use xlink:href="#L1_26" x="350" y="0"/><use xlink:href="#L1_26" x="-350" y="350"/><use xlink:href="#L1_26" x="0" y="350"/><use xlink:href="#L1_26" x="350" y="350"/></pattern><rect x="0" y="0" width="100%" height="100%" fill="url(#pattern_L1_26)"/></g><g fi:class="KUsePattern" opacity="0.2"><pattern id="pattern_L1_25" width="350" height="350" patternUnits="userSpaceOnUse"><use xlink:href="#L1_25" x="-350" y="-350"/><use xlink:href="#L1_25" x="0" y="-350"/><use xlink:href="#L1_25" x="350" y="-350"/><use xlink:href="#L1_25" x="-350" y="0"/><use xlink:href="#L1_25" x="0" y="0"/><use xlink:href="#L1_25" x="350" y="0"/><use xlink:href="#L1_25" x="-350" y="350"/><use xlink:href="#L1_25" x="0" y="350"/><use xlink:href="#L1_25" x="350" y="350"/></pattern><rect x="0" y="0" width="100%" height="100%" fill="url(#pattern_L1_25)"/></g></svg>